#format: frame checksums
#version: 2
#hash: MD5
#extradata 0,                              42, e89deaac1c1a77d78033d7d9c66b8264
#tb 0: 1/61440
#media_type 0: video
#codec_id 0: ffv1
#dimensions 0: 320x180
#sar 0: 0/1
#stream#, dts,        pts, duration,     size, hash
0,          0,          0,     4096,     9452, 3e77d49c5e0e361546ac7884ab426d2b
0,       4096,       4096,     4096,     9254, e2064d2cd6acaff4a5364c018125bc3f
0,       8192,       8192,     4096,     8816, 088262942afaab09e5d242d5a12ad499
0,      12288,      12288,     4096,     9734, aa577be593d27d48fbec615598f7b72c
0,      16384,      16384,     4096,    10106, 62517a243a575edf0553744acb53b658
0,      20480,      20480,     4096,    10712, 69d2c8fe9d0280824734ac3406c98ce1
0,      24576,      24576,     4096,    10479, 696d8577606a6a53ab3ed95396f83029
0,      28672,      28672,     4096,     9865, 1f410d5e44d630c19c67ac45a08d58b4
0,      32768,      32768,     4096,    10597, 9f2575fcd1317bff35bb83ce6c839f5c
0,      36864,      36864,     4096,    10725, 25c1f74a61d2dd1f8e8686f7d5e32065
0,      40960,      40960,     4096,    11086, 9a126e9b43f64c58241df357f11968a9
0,      45056,      45056,     4096,    10858, 7638e35733e9457f2d116aa40098d87a
0,      49152,      49152,     4096,    10525, 022ba7b1373fbaf2378b405b35c89807
0,      53248,      53248,     4096,    11243, de185b5c7afd851588ca013e78bdb91e
0,      57344,      57344,     4096,    11543, b14e4cf309483a5aa7d2298a7d33de10
0,      61440,      61440,     4096,    11295, 234f88dbe28c43107f28c490810a7b23
0,      65536,      65536,     4096,    11148, e92e92230334264c03dbb7c2acdd522d
0,      69632,      69632,     4096,    10499, 9fe25e5032465a2001cb12605640abc1
0,      73728,      73728,     4096,    10934, 1fc635550d8401c0875b512c62f93854
0,      77824,      77824,     4096,    11289, 44c50f753ed040dcd09c62cd906e82a9
0,      81920,      81920,     4096,    10348, dce3f2096070efa1f225c7337b489d03
0,      86016,      86016,     4096,    10138, 48148f1c22492a0f851cba7a4a299cb2
0,      90112,      90112,     4096,     9768, 77da32843975df08e291b4da038dcc7c
0,      94208,      94208,     4096,    10591, 704bd2fd4f69dfd9ab0fd1cbb4700b09
0,      98304,      98304,     4096,    10991, fd7b722b7990d369f50b0b2d2fe1e8f6
0,     102400,     102400,     4096,    10975, 057b66412c771c98dcb47dda4f91712a
0,     106496,     106496,     4096,    10755, 51de763e15cdcf842d8532fec46b416d
0,     110592,     110592,     4096,     9834, a0be74078c783bb77a65227b0c6bf253
0,     114688,     114688,     4096,    10513, 13b46fb53d99188b1560878a3d39a153
0,     118784,     118784,     4096,    10858, 715670668f1aa50032eddf9e5ba5de00
0,     122880,     122880,     4096,    10902, 931bc6a62808f4a07e75442c587d1aad
0,     126976,     126976,     4096,    13083, 99c1b4460c9edab6d8301e34094d6336
0,     131072,     131072,     4096,    12393, c118a623c31aac8cb99f9c5cf306fb4c
0,     135168,     135168,     4096,    13459, 43050557f3d5e4e527a2f36749e25e93
0,     139264,     139264,     4096,    13803, f23ce579d1fb0176886c17b11be7979d
0,     143360,     143360,     4096,    12665, 0483afc7096dc2fe20a8622c6551db8c
0,     147456,     147456,     4096,    12363, 3100642ed05e96d378053801f2208143
0,     151552,     151552,     4096,    12347, 812bfbe08cabd7b0f664013a44495310
0,     155648,     155648,     4096,    12309, 335b0ce14827076d88357637ebb5b463
0,     159744,     159744,     4096,    13260, 37df8b720f43e86fb8fa0de531d7bd7b
0,     163840,     163840,     4096,    13959, 30d49bc4f384fb99bf6b69f065d902e2
0,     167936,     167936,     4096,    13906, 3e0b42d7d616f372c5401745779db013
0,     172032,     172032,     4096,    12687, 8e535edea88da19beaf50d7708316e6d
0,     176128,     176128,     4096,    13318, 511b3582e8a95af3e22ee78aaa45d4d4
0,     180224,     180224,     4096,    12884, 518f4b747fb052d2faa73351d221b9d0
0,     184320,     184320,     4096,     9527, 610f729506fe8d953b55ef2da96f11dd
0,     188416,     188416,     4096,    10031, 81ce8c3c4f51bcb0a3dd330b0b512cd1
0,     192512,     192512,     4096,    10389, ad2f626dadcfef44d76cf976bb4914a5
0,     196608,     196608,     4096,     9569, 7f3487c5f52d9ebf122a8b2732eb0462
0,     200704,     200704,     4096,    10380, dc6d391330a1d9bab2c2f11b03335f72
0,     204800,     204800,     4096,    10016, 4ce12e3d35201db311f817f01fcb34ba
0,     208896,     208896,     4096,    10500, 062bdbb7106371394b0cbd031b67e9aa
0,     212992,     212992,     4096,     9521, 4c131c1bbf63bfd7b3305d30a681186d
0,     217088,     217088,     4096,    10541, d7515d6207fe39d2cd2fe2a8ed5b6f9a
0,     221184,     221184,     4096,    10656, f710ad87819740a8814dba7534cb3463
0,     225280,     225280,     4096,    10078, 48523edc49640533f4cb9f917bada445
0,     229376,     229376,     4096,    10444, 3e1af6fbcf5dc5568c89f95fb190699f
0,     233472,     233472,     4096,    10611, d047d724c6924a6ca2f5da969f9fb2d2
0,     237568,     237568,     4096,     9658, 51a6e91184dce7fa9ac16b7b5f768b21
0,     241664,     241664,     4096,    10611, 548c4d20db68ea59754713ed61ee074c
0,     245760,     245760,     4096,    10225, 3f9403924158d10b98384d1ae2365951
0,     249856,     249856,     4096,    10445, 25e34107f2f004d9f3746e9a242065e5
0,     253952,     253952,     4096,    14244, e0cb65bff73baf442131151fe349264d
0,     258048,     258048,     4096,    17661, 39f287576374ad9c4ca40dd06f0676db
0,     262144,     262144,     4096,    20768, 00a2f6f57a69ab51b371397dbc23c8e5
0,     266240,     266240,     4096,    22650, 669c30d1c71ac584900c1d880bb4234a
0,     270336,     270336,     4096,    25490, e90d7af9f7c294670cf577fc5d6aaca3
0,     274432,     274432,     4096,    27462, 9b804d1f983afb23791f64c674992fdb
0,     278528,     278528,     4096,    29064, 72b46f7d5ab5510d300b6618f722df2f
0,     282624,     282624,     4096,    29271, 42b2d3901e29a7a736b59a945e82a82f
0,     286720,     286720,     4096,    27111, daf09c36fc86596da4e76f75c982be17
0,     290816,     290816,     4096,    24348, d4376e640c28d45165a223475b8bb5db
0,     294912,     294912,     4096,    23326, f1dd997660ec40bc585e3005322d580c
0,     299008,     299008,     4096,    20543, d479fe0c284420934741276b8d11b001
0,     303104,     303104,     4096,    17566, c7887de61a4431724d732dbf9ef23557
0,     307200,     307200,     4096,    15309, ba58630c2be9641f25b2a963f99b7135
0,     311296,     311296,     4096,    11584, 5a7da747f880def501d2d937847cad44
0,     315392,     315392,     4096,    12048, 246e39877d9c524ce16c4c32fd826d84
0,     319488,     319488,     4096,    12334, 323965df3e39aad0b63316e3b2f08e0a
0,     323584,     323584,     4096,    11627, 59f79a86dae8e83aaea78ac4d8667aa5
0,     327680,     327680,     4096,    12244, 1fe530f4787a0237cd2470225789f941
0,     331776,     331776,     4096,    11919, 38154b9d01d6aaf0d9d449b8c77cd9d1
0,     335872,     335872,     4096,    12601, f07c4563593e418d2fb20376b5e604be
0,     339968,     339968,     4096,    11896, 91c67240d1caa65292c677caed1a17b2
0,     344064,     344064,     4096,    12721, 9d8c3b08597e2666088c14d689e6ae3a
0,     348160,     348160,     4096,    12789, 1275cc97920badbffd13347233141596
0,     352256,     352256,     4096,    12369, cdc4094331dc4be3b802bce1209e5667
0,     356352,     356352,     4096,    12682, 894ec50eb850a99bd5ca42b6d66b4406
0,     360448,     360448,     4096,    12808, 3310853510ae7d2872bc49f05f9c2174
0,     364544,     364544,     4096,    11894, ffa96fa7a2901d5c7967fdcfaa8128dc
0,     368640,     368640,     4096,    12705, 7bc186817d1c535e8b230209217b5026
0,     372736,     372736,     4096,    12341, 5aed41e0db953cd2646d14e1cb0d2f33
0,     376832,     376832,     4096,    12397, a92e08f168f85dc72b32518c0ba393a3
0,     380928,     380928,     4096,    14155, 74a2fb9a41fb981cce2a9826a77c9930
0,     385024,     385024,     4096,    16172, ad9c21613ea7330a97e438b56e46d9bf
0,     389120,     389120,     4096,    16867, 33085429dfe4000258e2e895f18a098b
0,     393216,     393216,     4096,    17221, ae49f5d13dde7f82eef6cc381224cc0a
0,     397312,     397312,     4096,    18655, d1507031fe39f7cc3b1a4544cb054811
0,     401408,     401408,     4096,    17313, 8a7a498916134284c6343f116e4cbdd1
0,     405504,     405504,     4096,    16137, ce9879313e572acbb3bd478bdf5dfcf0
0,     409600,     409600,     4096,    18096, 19fcfb08692042cf54c071d2b7f45207
0,     413696,     413696,     4096,    16760, 40a3e33c79c0adc0db0908ef9ece2c4e
0,     417792,     417792,     4096,    15387, 5026926b791d48232a4ed40776678351
0,     421888,     421888,     4096,    11484, 360bdaa7b04d9b697cffa50dc4bfbdfc
0,     425984,     425984,     4096,    10788, 176cc8ae1f3c9a6dfd624fbf48455011
0,     430080,     430080,     4096,     9408, d83ffb5a3a66ace493c0a6b0f1076a72
0,     434176,     434176,     4096,     7677, cc8a33c949bda4583f6e1d8193f22871
0,     438272,     438272,     4096,     7399, cd038e51c1da579da69e144508f02c4f
0,     442368,     442368,     4096,     7399, cd038e51c1da579da69e144508f02c4f
0,     446464,     446464,     4096,     7399, cd038e51c1da579da69e144508f02c4f
0,     450560,     450560,     4096,     7399, cd038e51c1da579da69e144508f02c4f
0,     454656,     454656,     4096,     7399, cd038e51c1da579da69e144508f02c4f
0,     458752,     458752,     4096,     7399, cd038e51c1da579da69e144508f02c4f
0,     462848,     462848,     4096,     7399, cd038e51c1da579da69e144508f02c4f
0,     466944,     466944,     4096,     7399, cd038e51c1da579da69e144508f02c4f
0,     471040,     471040,     4096,     7399, cd038e51c1da579da69e144508f02c4f
0,     475136,     475136,     4096,     7399, cd038e51c1da579da69e144508f02c4f
0,     479232,     479232,     4096,     7399, cd038e51c1da579da69e144508f02c4f
0,     483328,     483328,     4096,     7399, cd038e51c1da579da69e144508f02c4f
0,     487424,     487424,     4096,     7399, cd038e51c1da579da69e144508f02c4f
0,     491520,     491520,     4096,     7399, cd038e51c1da579da69e144508f02c4f
0,     495616,     495616,     4096,     7399, cd038e51c1da579da69e144508f02c4f
0,     499712,     499712,     4096,     7399, cd038e51c1da579da69e144508f02c4f
0,     503808,     503808,     4096,     7399, cd038e51c1da579da69e144508f02c4f
0,     507904,     507904,     4096,    12213, e93658deb2eac4c67c597d9c95c1b18c
0,     512000,     512000,     4096,    12995, 420180b25cee74980c202826b803b212
0,     516096,     516096,     4096,    14075, ae9a798bd67c2ac7b4f020d011ba0ea4
0,     520192,     520192,     4096,    14839, 7d5b3d17a24c7f7c137acee73ef36356
0,     524288,     524288,     4096,    14773, a11b723df666b855f324e150b7fe885c
0,     528384,     528384,     4096,    15238, 733224bfaeb00e16aeb0b21648beae4f
0,     532480,     532480,     4096,    16309, 22b1d29e769044577ddb436895ed2470
0,     536576,     536576,     4096,    15851, bbed557c24566353e67baaaaae4d86cf
0,     540672,     540672,     4096,    16580, 3ec478bf2b5e96aeed400449899278b0
0,     544768,     544768,     4096,    16147, 13f2466d00e923952289599aad670b3d
0,     548864,     548864,     4096,    16579, da3d75d41f82ba7ee3a99f2d3326c78f
0,     552960,     552960,     4096,    15470, 3d9c8e4fd5ddad6631a13e7e8253f478
0,     557056,     557056,     4096,    15959, bc07ac6383dee092161b35b652b7b42c
0,     561152,     561152,     4096,    15412, 09b3bd921d5dc11e4bf9b675512ac777
0,     565248,     565248,     4096,    12134, 4a8a09fd747200b904c680d3c14158f3
0,     569344,     569344,     4096,    12463, 87719a7e17a6a4e140728d828008d3c4
0,     573440,     573440,     4096,    12647, ae34b9a46c73bb2009aeffe58aa9b2c2
0,     577536,     577536,     4096,    12177, 9c4e153b7207a5c383ba48e51bcd0f5b
0,     581632,     581632,     4096,    12503, 8e1fbaf363eed709c2675d7c6c0d896f
0,     585728,     585728,     4096,    12268, 9671d9293bcbdee09377d47b5f7124e6
0,     589824,     589824,     4096,    12751, 6e9929e9bac9b1f5a9539f8191fe9d7a
0,     593920,     593920,     4096,    12170, 8d7d3289dd2b215cf500b1d1e6dbe727
0,     598016,     598016,     4096,    12876, 93bcc540b40ddf4978f59ef5248ffb85
0,     602112,     602112,     4096,    13028, da6b83db811e23f8d0eb8998d3b6530e
0,     606208,     606208,     4096,    12639, 9ac75c4d9e64a3d12d4e37f23429e27a
0,     610304,     610304,     4096,    12835, 079dd7b83fc56b12553b6f36568b7a22
0,     614400,     614400,     4096,    12890, 99125c592f974f6d343799a447792a60
0,     618496,     618496,     4096,    12207, 338a291a055dd02a8891bd0889d4ded7
0,     622592,     622592,     4096,    12758, 9a26ba665615ec8becfed055c4fa73ff
0,     626688,     626688,     4096,    12516, 7e731eba60bb644d724c6111f2245674
0,     630784,     630784,     4096,    12640, 91401a77aadc6935e1f3e410c8d07767
0,     634880,     634880,     4096,    12457, 769fb537dd580239d286fdb9110e7311
0,     638976,     638976,     4096,    13239, ce11d09ee6cf1fbb3af20bcd95351592
0,     643072,     643072,     4096,    12905, 42f78d3d5b03e3e64ab593c90f2fb97e
0,     647168,     647168,     4096,    12778, c0f5c7dbc163850b6e2e1537ff6de5ba
0,     651264,     651264,     4096,    12655, 0cc21bcd60c3b1afe94da30a4ccee6fb
0,     655360,     655360,     4096,    13311, f12b52b1068c995a798636cb46f320b4
0,     659456,     659456,     4096,    13003, 5e08025ae85f2aef14ecb3a424401924
0,     663552,     663552,     4096,    13590, 3cec0820ec61fa2bf5f578947609c122
0,     667648,     667648,     4096,    13342, 234c46e2a8926df84c43e38ba0fc5577
0,     671744,     671744,     4096,    12842, f92c4c97f28dd260b1e10fda1d8ae6dd
0,     675840,     675840,     4096,    12234, 7f4015eecde1ff3c0c8146777730748d
0,     679936,     679936,     4096,    12118, b004e3ac9388e4be84dd862fad9cf331
0,     684032,     684032,     4096,    12743, 927dda7c2c6a958a97def909014d7741
0,     688128,     688128,     4096,    12308, 31a1fa88c71bf84700df4197cb8c2dc5
